<?xml version="1.0" encoding="utf-8"?>
<!-- Generator: Adobe Illustrator 27.2.0, SVG Export Plug-In . SVG Version: 6.00 Build 0)  -->
<svg version="1.1" id="Layer_1" xmlns="http://www.w3.org/2000/svg" xmlns:xlink="http://www.w3.org/1999/xlink" x="0px" y="0px"
	 viewBox="0 0 805 600" style="enable-background:new 0 0 805 600;" xml:space="preserve">
<style type="text/css">
	.st0{fill:#FFFFFF;}
	.st1{fill:#CCCCCC;fill-opacity:0;stroke:#CCCCCC;stroke-opacity:0.1;}
	.st2{clip-path:url(#SVGID_00000072274604334629144660000007210885300807382925_);enable-background:new    ;}
	.st3{font-family:'ArialMT';}
	.st4{font-size:8px;}
	.st5{fill:none;stroke:#FFFFFF;stroke-width:2;stroke-linecap:round;stroke-linejoin:round;}
	.st6{fill:#143BDA;}
	.st7{font-family:'Arial-BoldMT';}
	.st8{font-size:10.2831px;}
	.st9{font-family:'Palatino-Bold';}
	.st10{font-size:32.5785px;}
	.st11{fill:#E0EA17;}
	.st12{font-size:10px;}
	.st13{fill:#9467BD;}
	.st14{fill:#CF3615;}
	.st15{fill:#FF7F0E;}
</style>
<rect id="backgorund" class="st0" width="805" height="600"/>
<g id="viz" transform="translate(20,20)">
	<g id="ancestors">
		<g transform="translate(0,0)">
			<rect id="path_ancestor0" x="0" y="-3.7" class="st1" width="765" height="560"/>
			<g>
				<defs>
					<rect id="SVGID_1_" x="0" y="-3.7" width="765" height="560"/>
				</defs>
				<clipPath id="SVGID_00000103257256340932406440000003501171256495867523_">
					<use xlink:href="#SVGID_1_"  style="overflow:visible;"/>
				</clipPath>
				<g style="clip-path:url(#SVGID_00000103257256340932406440000003501171256495867523_);enable-background:new    ;">
					<text transform="matrix(1 0 0 1 2 -1.7275)" class="st3 st4">Root</text>
				</g>
				<g style="clip-path:url(#SVGID_00000103257256340932406440000003501171256495867523_);enable-background:new    ;">
					<text transform="matrix(1 0 0 1 2 -1.7275)" class="st5 st3 st4">Root</text>
				</g>
			</g>
		</g>
	</g>
	<g id="leaves">
		<g transform="translate(2,12)">
			<rect id="path0" x="-2" y="-8" class="st6" width="599" height="546"/>
			<g>
				<defs>
					<rect id="SVGID_00000140732120624037206360000000128415427495843743_" x="36.9" y="-3.7" width="600.1" height="561.5"/>
				</defs>
				<clipPath id="SVGID_00000029016823661123035250000013698359709003713719_">
					<use xlink:href="#SVGID_00000140732120624037206360000000128415427495843743_"  style="overflow:visible;"/>
				</clipPath>
				<text transform="matrix(0.9743 0 0 1 107.3563 -24.6947)" class="st7 st8">Chelsea Football Club spent Tk more than the the 4 highest leagues Combined </text>
				<text transform="matrix(0.9316 0 0 1 113.3217 166.0884)" class="st9 st10">930 Million</text>
				<g style="clip-path:url(#SVGID_00000029016823661123035250000013698359709003713719_);">
					
						<image style="overflow:visible;" width="1400" height="1400" xlink:href="prem.png"  transform="matrix(0.2172 0 0 0.2029 25.9932 200.9516)">
					</image>
				</g>
			</g>
		</g>
		<g transform="translate(603,12)">
			<rect id="path1" y="-10.1" class="st11" width="72" height="119"/>
			<g>
				<defs>
					<rect id="SVGID_00000052816177168631302540000010235104770826120104_" y="-10.1" width="72" height="119"/>
				</defs>
				<clipPath id="SVGID_00000128464464743941120430000003566717629196204976_">
					<use xlink:href="#SVGID_00000052816177168631302540000010235104770826120104_"  style="overflow:visible;"/>
				</clipPath>
				<text transform="matrix(1 0 0 1 3 -8.1084)" class="st7 st12">Primera Division</text>
				<text transform="matrix(1 0 0 1 3 -8.1084)" class="st5 st7 st12">Primera Division</text>
				<text transform="matrix(1 0 0 1 3 2.8916)" class="st3 st12">25</text>
				<text transform="matrix(1 0 0 1 3 2.8916)" class="st5 st3 st12">25</text>
			</g>
		</g>
		<g transform="translate(677,12)">
			<rect id="path2" y="-10.1" class="st13" width="86" height="119"/>
			<g>
				<defs>
					<rect id="SVGID_00000162334040281700040610000001419943197790217629_" y="-10.1" width="86" height="119"/>
				</defs>
				<clipPath id="SVGID_00000162309998418240010730000016416227692323350661_">
					<use xlink:href="#SVGID_00000162334040281700040610000001419943197790217629_"  style="overflow:visible;"/>
				</clipPath>
				<text transform="matrix(1 0 0 1 3 -8.1084)" class="st7 st12">Serie A</text>
				<text transform="matrix(1 0 0 1 3 -8.1084)" class="st5 st7 st12">Serie A</text>
				<text transform="matrix(1 0 0 1 3 2.8916)" class="st3 st12">30</text>
				<text transform="matrix(1 0 0 1 3 2.8916)" class="st5 st3 st12">30</text>
			</g>
		</g>
		<g transform="translate(603,133)">
			<rect id="path3" y="-10.1" class="st14" width="160" height="151"/>
			<g>
				<defs>
					<rect id="SVGID_00000054979855306451694400000004236522232672443286_" y="-10.1" width="160" height="151"/>
				</defs>
				<clipPath id="SVGID_00000026138053169390138060000012788832294102478729_">
					<use xlink:href="#SVGID_00000054979855306451694400000004236522232672443286_"  style="overflow:visible;"/>
				</clipPath>
				<text transform="matrix(1 0 0 1 3 -8.1084)" class="st7 st12">1 Bundesliga</text>
				<text transform="matrix(1 0 0 1 3 -8.1084)" class="st5 st7 st12">1 Bundesliga</text>
				<text transform="matrix(1 0 0 1 3 2.8916)" class="st3 st12">70</text>
				<text transform="matrix(1 0 0 1 3 2.8916)" class="st5 st3 st12">70</text>
			</g>
		</g>
		<g transform="translate(603,286)">
			<rect id="path4" y="-10.1" class="st15" width="160" height="272"/>
			<g>
				<defs>
					<rect id="SVGID_00000013874863838300698130000017536633349677338496_" y="-10.1" width="160" height="272"/>
				</defs>
				<clipPath id="SVGID_00000098217070264143388700000001493640825537168803_">
					<use xlink:href="#SVGID_00000013874863838300698130000017536633349677338496_"  style="overflow:visible;"/>
				</clipPath>
				<text transform="matrix(1 0 0 1 3 -8.1084)" class="st7 st12">Ligue 1</text>
				<text transform="matrix(1 0 0 1 3 -8.1084)" class="st5 st7 st12">Ligue 1</text>
				<text transform="matrix(1 0 0 1 3 2.8916)" class="st3 st12">125</text>
				<text transform="matrix(1 0 0 1 3 2.8916)" class="st5 st3 st12">125</text>
			</g>
		</g>
	</g>
</g>
</svg>
