<svg xmlns="http://www.w3.org/2000/svg" width="1000" height="800"><rect width="1000" height="800" x="0" y="0" fill="#FFFFFF" id="backgorund"/><g transform="translate(1,1)" id="visualization"><g><rect x="0" y="0" height="233.9223796494879" width="3" fill="black"><title>Premier League: 6107.4439999999995</title></rect><rect x="994" y="0" height="154.91472099251382" width="3" fill="black"><title>Italy: 4044.644999999998</title></rect><rect x="0" y="251.9223796494879" height="145.10475182497257" width="3" fill="black"><title>Serie A: 3788.517999999998</title></rect><rect x="994" y="172.91472099251382" height="129.39999954319683" width="3" fill="black"><title>Germany: 3378.485</title></rect><rect x="0" y="415.0271314744605" height="101.04026562051706" width="3" fill="black"><title>Primera Division: 2638.045</title></rect><rect x="0" y="534.0673970949775" height="88.77335164762769" width="3" fill="black"><title>Ligue 1: 2317.77</title></rect><rect x="0" y="640.8407487426052" height="85.15925125739477" width="3" fill="black"><title>1 Bundesliga: 2223.41</title></rect><rect x="994" y="320.31472053571065" height="76.33369930297101" width="3" fill="black"><title>Spain: 1992.9850000000004</title></rect><rect x="994" y="414.64841983868166" height="72.94255014601015" width="3" fill="black"><title>England: 1904.446</title></rect><rect x="994" y="505.5909699846918" height="64.55125709604238" width="3" fill="black"><title>Portugal: 1685.3590000000002</title></rect><rect x="994" y="588.1422270807342" height="56.59429955291273" width="3" fill="black"><title>France: 1477.6119999999996</title></rect><rect x="994" y="662.7365266336469" height="44.75647382368345" width="3" fill="black"><title>Other: 1168.54</title></rect><rect x="994" y="725.4930004573304" height="34.546908329613075" width="3" fill="black"><title>Belgium: 901.98</title></rect><rect x="994" y="778.0399087869434" height="19.96009121305667" width="3" fill="black"><title>Netherlands: 521.135</title></rect></g><g fill="none" stroke-opacity="1"><g style="mix-blend-mode: multiply;"><path d="M3,229.96012143234506C498.5,229.96012143234506,498.5,782.0021670040862,994,782.0021670040862" stroke="#2ca02c" stroke-width="7.924516434285612"/><title>Premier League → Netherlands: 206.9</title></g><g style="mix-blend-mode: multiply;"><path d="M3,170.43147187787753C498.5,170.43147187787753,498.5,521.8764257750149,994,521.8764257750149" stroke="#2ca02c" stroke-width="32.57091158064624"/><title>Premier League → Portugal: 850.389</title></g><g style="mix-blend-mode: multiply;"><path d="M3,16.437913681413857C498.5,16.437913681413857,498.5,16.437913681413857,994,16.437913681413857" stroke="#2ca02c" stroke-width="32.875827362827714"/><title>Premier League → Italy: 858.3499999999999</title></g><g style="mix-blend-mode: multiply;"><path d="M3,60.60588970416548C498.5,60.60588970416548,498.5,200.6447833338516,994,200.6447833338516" stroke="#2ca02c" stroke-width="55.46012468267552"/><title>Premier League → Germany: 1448</title></g><g style="mix-blend-mode: multiply;"><path d="M3,196.414789249453C498.5,196.414789249453,498.5,597.8400886619866,994,597.8400886619866" stroke="#2ca02c" stroke-width="19.39572316250475"/><title>Premier League → France: 506.4</title></g><g style="mix-blend-mode: multiply;"><path d="M3,132.56090108998515C498.5,132.56090108998515,498.5,436.23353483625095,994,436.23353483625095" stroke="#2ca02c" stroke-width="43.170229995138556"/><title>Premier League → England: 1127.1249999999998</title></g><g style="mix-blend-mode: multiply;"><path d="M3,99.65586906895956C498.5,99.65586906895956,498.5,331.63463755916695,994,331.63463755916695" stroke="#2ca02c" stroke-width="22.63983404691264"/><title>Premier League → Spain: 591.1</title></g><g style="mix-blend-mode: multiply;"><path d="M3,210.33918726629463C498.5,210.33918726629463,498.5,666.9630630692362,994,666.9630630692362" stroke="#2ca02c" stroke-width="8.453072871178511"/><title>Premier League → Other: 220.69999999999996</title></g><g style="mix-blend-mode: multiply;"><path d="M3,220.28179345854306C498.5,220.28179345854306,498.5,731.2090702139895,994,731.2090702139895" stroke="#2ca02c" stroke-width="11.432139513318363"/><title>Premier League → Belgium: 298.48</title></g><g style="mix-blend-mode: multiply;"><path d="M3,674.0039307915047C498.5,674.0039307915047,498.5,279.65315056286056,994,279.65315056286056" stroke="#1f77b4" stroke-width="45.32313994570017"/><title>1 Bundesliga → Germany: 1183.3350000000003</title></g><g style="mix-blend-mode: multiply;"><path d="M3,719.9637322859188C498.5,719.9637322859188,498.5,757.2439218381621,994,757.2439218381621" stroke="#1f77b4" stroke-width="5.5919738975625854"/><title>1 Bundesliga → Belgium: 145.99999999999997</title></g><g style="mix-blend-mode: multiply;"><path d="M3,724.3798596173501C498.5,724.3798596173501,498.5,796.3798596173502,994,796.3798596173502" stroke="#1f77b4" stroke-width="3.2402807652999646"/><title>1 Bundesliga → Netherlands: 84.6</title></g><g style="mix-blend-mode: multiply;"><path d="M3,701.6647637299668C498.5,701.6647637299668,498.5,485.1655470596017,994,485.1655470596017" stroke="#1f77b4" stroke-width="4.850845850180148"/><title>1 Bundesliga → England: 126.65</title></g><g style="mix-blend-mode: multiply;"><path d="M3,697.9524207846157C498.5,697.9524207846157,498.5,395.3614998184207,994,395.3614998184207" stroke="#1f77b4" stroke-width="2.573840040521958"/><title>1 Bundesliga → Spain: 67.2</title></g><g style="mix-blend-mode: multiply;"><path d="M3,710.1366041847741C498.5,710.1366041847741,498.5,640.8633186857631,994,640.8633186857631" stroke="#1f77b4" stroke-width="7.746415895767351"/><title>1 Bundesliga → France: 202.25</title></g><g style="mix-blend-mode: multiply;"><path d="M3,646.0915547806298C498.5,646.0915547806298,498.5,149.66391495448917,994,149.66391495448917" stroke="#1f77b4" stroke-width="10.501612076049303"/><title>1 Bundesliga → Italy: 274.18500000000006</title></g><g style="mix-blend-mode: multiply;"><path d="M3,705.1767914459737C498.5,705.1767914459737,498.5,569.0556222898174,994,569.0556222898174" stroke="#1f77b4" stroke-width="2.1732095818335697"/><title>1 Bundesliga → Portugal: 56.74</title></g><g style="mix-blend-mode: multiply;"><path d="M3,715.5887787348976C498.5,715.5887787348976,498.5,705.9140338550905,994,705.9140338550905" stroke="#1f77b4" stroke-width="3.1579332044796935"/><title>1 Bundesliga → Other: 82.44999999999999</title></g><g style="mix-blend-mode: multiply;"><path d="M3,450.9200394115741C498.5,450.9200394115741,498.5,371.9781438996832,994,371.9781438996832" stroke="#d62728" stroke-width="31.767965410861983"/><title>Primera Division → Spain: 829.4250000000002</title></g><g style="mix-blend-mode: multiply;"><path d="M3,486.60937651810184C498.5,486.60937651810184,498.5,548.8848745258251,994,548.8848745258251" stroke="#d62728" stroke-width="17.74609086272379"/><title>Primera Division → Portugal: 463.33</title></g><g style="mix-blend-mode: multiply;"><path d="M3,420.4067252674889C498.5,420.4067252674889,498.5,125.43774132605395,994,125.43774132605395" stroke="#d62728" stroke-width="10.759187586056893"/><title>Primera Division → Italy: 280.91</title></g><g style="mix-blend-mode: multiply;"><path d="M3,515.1232727348753C498.5,515.1232727348753,498.5,790.9487507223201,994,790.9487507223201" stroke="#d62728" stroke-width="1.888248720204353"/><title>Primera Division → Netherlands: 49.3</title></g><g style="mix-blend-mode: multiply;"><path d="M3,472.27017660187255C498.5,472.27017660187255,498.5,472.38558863220646,994,472.38558863220646" stroke="#d62728" stroke-width="10.93230896973486"/><title>Primera Division → England: 285.43000000000006</title></g><g style="mix-blend-mode: multiply;"><path d="M3,513.7310244391465C498.5,513.7310244391465,498.5,745.8071861819142,994,745.8071861819142" stroke="#d62728" stroke-width="1"/><title>Primera Division → Belgium: 23.4</title></g><g style="mix-blend-mode: multiply;"><path d="M3,506.24026899383284C498.5,506.24026899383284,498.5,689.2817416289497,994,689.2817416289497" stroke="#d62728" stroke-width="14.085263019374256"/><title>Primera Division → Other: 367.75</title></g><g style="mix-blend-mode: multiply;"><path d="M3,430.4111878833303C498.5,430.4111878833303,498.5,241.49683373892182,994,241.49683373892182" stroke="#d62728" stroke-width="9.249737645625785"/><title>Primera Division → Germany: 241.5</title></g><g style="mix-blend-mode: multiply;"><path d="M3,497.34002971680474C498.5,497.34002971680474,498.5,611.2068979390973,994,611.2068979390973" stroke="#d62728" stroke-width="3.7152155346819926"/><title>Primera Division → France: 97</title></g><g style="mix-blend-mode: multiply;"><path d="M3,607.7759327613804C498.5,607.7759327613804,498.5,700.3297201957437,994,700.3297201957437" stroke="#ff7f0e" stroke-width="8.0106941142138"/><title>Ligue 1 → Other: 209.14999999999998</title></g><g style="mix-blend-mode: multiply;"><path d="M3,567.1896926223999C498.5,567.1896926223999,498.5,480.2959336257927,994,480.2959336257927" stroke="#ff7f0e" stroke-width="4.88838101743776"/><title>Ligue 1 → England: 127.63000000000001</title></g><g style="mix-blend-mode: multiply;"><path d="M3,591.8077831885529C498.5,591.8077831885529,498.5,625.0273082221588,994,625.0273082221588" stroke="#ff7f0e" stroke-width="23.925605031441236"/><title>Ligue 1 → France: 624.6699999999998</title></g><g style="mix-blend-mode: multiply;"><path d="M3,615.8775922044074C498.5,615.8775922044074,498.5,750.3516225034608,994,750.3516225034608" stroke="#ff7f0e" stroke-width="8.192624771839983"/><title>Ligue 1 → Belgium: 213.9</title></g><g style="mix-blend-mode: multiply;"><path d="M3,540.8652839936686C498.5,540.8652839936686,498.5,137.61522201777348,994,137.61522201777348" stroke="#ff7f0e" stroke-width="13.595773797382133"/><title>Ligue 1 → Italy: 354.96999999999997</title></g><g style="mix-blend-mode: multiply;"><path d="M3,561.6392755171582C498.5,561.6392755171582,498.5,390.96835320163694,994,390.96835320163694" stroke="#ff7f0e" stroke-width="6.212453193045558"/><title>Ligue 1 → Spain: 162.2</title></g><g style="mix-blend-mode: multiply;"><path d="M3,574.7394319019755C498.5,574.7394319019755,498.5,562.8634687280438,994,562.8634687280438" stroke="#ff7f0e" stroke-width="10.2110975417136"/><title>Ligue 1 → Portugal: 266.6</title></g><g style="mix-blend-mode: multiply;"><path d="M3,553.0981099064975C498.5,553.0981099064975,498.5,251.5566415758726,994,251.5566415758726" stroke="#ff7f0e" stroke-width="10.86987802827577"/><title>Ligue 1 → Germany: 283.8</title></g><g style="mix-blend-mode: multiply;"><path d="M3,621.4073266664662C498.5,621.4073266664662,498.5,793.3262971585613,994,793.3262971585613" stroke="#ff7f0e" stroke-width="2.8668441522778054"/><title>Ligue 1 → Netherlands: 74.85</title></g><g style="mix-blend-mode: multiply;"><path d="M3,295.5135397345868C498.5,295.5135397345868,498.5,76.46698744792661,994,76.46698744792661" stroke="#9467bd" stroke-width="87.18232017019778"/><title>Serie A → Italy: 2276.229999999998</title></g><g style="mix-blend-mode: multiply;"><path d="M3,370.76718375031555C498.5,370.76718375031555,498.5,539.0868553299006,994,539.0868553299006" stroke="#9467bd" stroke-width="1.8499475291251568"/><title>Serie A → Portugal: 48.29999999999999</title></g><g style="mix-blend-mode: multiply;"><path d="M3,365.2918178289936C498.5,365.2918178289936,498.5,462.36904199057966,994,462.36904199057966" stroke="#9467bd" stroke-width="9.100784313518792"/><title>Serie A → England: 237.611</title></g><g style="mix-blend-mode: multiply;"><path d="M3,379.028252750614C498.5,379.028252750614,498.5,676.714354812044,994,676.714354812044" stroke="#9467bd" stroke-width="11.0495106144372"/><title>Serie A → Other: 288.49000000000007</title></g><g style="mix-blend-mode: multiply;"><path d="M3,372.59782747913675C498.5,372.59782747913675,498.5,608.4436202074976,994,608.4436202074976" stroke="#9467bd" stroke-width="1.811339928517328"/><title>Serie A → France: 47.292</title></g><g style="mix-blend-mode: multiply;"><path d="M3,354.17162236641974C498.5,354.17162236641974,498.5,349.52435788843775,994,349.52435788843775" stroke="#9467bd" stroke-width="13.139606611628912"/><title>Serie A → Spain: 343.06</title></g><g style="mix-blend-mode: multiply;"><path d="M3,343.3532594401455C498.5,343.3532594401455,498.5,232.62340529564912,994,232.62340529564912" stroke="#9467bd" stroke-width="8.497119240919588"/><title>Serie A → Germany: 221.84999999999997</title></g><g style="mix-blend-mode: multiply;"><path d="M3,388.7699691956521C498.5,388.7699691956521,498.5,741.1421011084682,994,741.1421011084682" stroke="#9467bd" stroke-width="8.433922275638915"/><title>Serie A → Belgium: 220.2</title></g><g style="mix-blend-mode: multiply;"><path d="M3,395.00703090396604C498.5,395.00703090396604,498.5,787.9845257917235,994,787.9845257917235" stroke="#9467bd" stroke-width="4.0402011409889695"/><title>Serie A → Netherlands: 105.48500000000001</title></g></g><g><text x="7" y="116.96118982474395" text-anchor="start" transform="translate(0,-5)"><tspan alignment-baseline="middle" x="7" style="font-family: Arial, sans-serif; font-size: 10px; fill: black; font-weight: bold;">Premier League</tspan><tspan alignment-baseline="middle" x="7" dy="12" style="font-family: Arial, sans-serif; font-size: 10px; fill: black; font-weight: normal;">6107.4439999999995</tspan></text><text x="990" y="77.45736049625691" text-anchor="end" transform="translate(0,-5)"><tspan alignment-baseline="middle" x="990" style="font-family: Arial, sans-serif; font-size: 10px; fill: black; font-weight: bold;">Italy</tspan><tspan alignment-baseline="middle" x="990" dy="12" style="font-family: Arial, sans-serif; font-size: 10px; fill: black; font-weight: normal;">4044.644999999998</tspan></text><text x="7" y="324.4747555619742" text-anchor="start" transform="translate(0,-5)"><tspan alignment-baseline="middle" x="7" style="font-family: Arial, sans-serif; font-size: 10px; fill: black; font-weight: bold;">Serie A</tspan><tspan alignment-baseline="middle" x="7" dy="12" style="font-family: Arial, sans-serif; font-size: 10px; fill: black; font-weight: normal;">3788.517999999998</tspan></text><text x="990" y="237.61472076411223" text-anchor="end" transform="translate(0,-5)"><tspan alignment-baseline="middle" x="990" style="font-family: Arial, sans-serif; font-size: 10px; fill: black; font-weight: bold;">Germany</tspan><tspan alignment-baseline="middle" x="990" dy="12" style="font-family: Arial, sans-serif; font-size: 10px; fill: black; font-weight: normal;">3378.485</tspan></text><text x="7" y="465.547264284719" text-anchor="start" transform="translate(0,-5)"><tspan alignment-baseline="middle" x="7" style="font-family: Arial, sans-serif; font-size: 10px; fill: black; font-weight: bold;">Primera Division</tspan><tspan alignment-baseline="middle" x="7" dy="12" style="font-family: Arial, sans-serif; font-size: 10px; fill: black; font-weight: normal;">2638.045</tspan></text><text x="7" y="578.4540729187913" text-anchor="start" transform="translate(0,-5)"><tspan alignment-baseline="middle" x="7" style="font-family: Arial, sans-serif; font-size: 10px; fill: black; font-weight: bold;">Ligue 1</tspan><tspan alignment-baseline="middle" x="7" dy="12" style="font-family: Arial, sans-serif; font-size: 10px; fill: black; font-weight: normal;">2317.77</tspan></text><text x="7" y="683.4203743713026" text-anchor="start" transform="translate(0,-5)"><tspan alignment-baseline="middle" x="7" style="font-family: Arial, sans-serif; font-size: 10px; fill: black; font-weight: bold;">1 Bundesliga</tspan><tspan alignment-baseline="middle" x="7" dy="12" style="font-family: Arial, sans-serif; font-size: 10px; fill: black; font-weight: normal;">2223.41</tspan></text><text x="990" y="358.48157018719616" text-anchor="end" transform="translate(0,-5)"><tspan alignment-baseline="middle" x="990" style="font-family: Arial, sans-serif; font-size: 10px; fill: black; font-weight: bold;">Spain</tspan><tspan alignment-baseline="middle" x="990" dy="12" style="font-family: Arial, sans-serif; font-size: 10px; fill: black; font-weight: normal;">1992.9850000000004</tspan></text><text x="990" y="451.11969491168674" text-anchor="end" transform="translate(0,-5)"><tspan alignment-baseline="middle" x="990" style="font-family: Arial, sans-serif; font-size: 10px; fill: black; font-weight: bold;">England</tspan><tspan alignment-baseline="middle" x="990" dy="12" style="font-family: Arial, sans-serif; font-size: 10px; fill: black; font-weight: normal;">1904.446</tspan></text><text x="990" y="537.8665985327129" text-anchor="end" transform="translate(0,-5)"><tspan alignment-baseline="middle" x="990" style="font-family: Arial, sans-serif; font-size: 10px; fill: black; font-weight: bold;">Portugal</tspan><tspan alignment-baseline="middle" x="990" dy="12" style="font-family: Arial, sans-serif; font-size: 10px; fill: black; font-weight: normal;">1685.3590000000002</tspan></text><text x="990" y="616.4393768571906" text-anchor="end" transform="translate(0,-5)"><tspan alignment-baseline="middle" x="990" style="font-family: Arial, sans-serif; font-size: 10px; fill: black; font-weight: bold;">France</tspan><tspan alignment-baseline="middle" x="990" dy="12" style="font-family: Arial, sans-serif; font-size: 10px; fill: black; font-weight: normal;">1477.6119999999996</tspan></text><text x="990" y="685.1147635454886" text-anchor="end" transform="translate(0,-5)"><tspan alignment-baseline="middle" x="990" style="font-family: Arial, sans-serif; font-size: 10px; fill: black; font-weight: bold;">Other</tspan><tspan alignment-baseline="middle" x="990" dy="12" style="font-family: Arial, sans-serif; font-size: 10px; fill: black; font-weight: normal;">1168.54</tspan></text><text x="990" y="742.766454622137" text-anchor="end" transform="translate(0,-5)"><tspan alignment-baseline="middle" x="990" style="font-family: Arial, sans-serif; font-size: 10px; fill: black; font-weight: bold;">Belgium</tspan><tspan alignment-baseline="middle" x="990" dy="12" style="font-family: Arial, sans-serif; font-size: 10px; fill: black; font-weight: normal;">901.98</tspan></text><text x="990" y="788.0199543934718" text-anchor="end" transform="translate(0,-5)"><tspan alignment-baseline="middle" x="990" style="font-family: Arial, sans-serif; font-size: 10px; fill: black; font-weight: bold;">Netherlands</tspan><tspan alignment-baseline="middle" x="990" dy="12" style="font-family: Arial, sans-serif; font-size: 10px; fill: black; font-weight: normal;">521.135</tspan></text></g><g><text x="1.5" y="-4" text-anchor="middle" style="font-family: Arial, sans-serif; font-size: 12px; fill: rgb(123, 123, 123); font-weight: bold;">league_name</text><text x="995.5" y="-4" text-anchor="middle" style="font-family: Arial, sans-serif; font-size: 12px; fill: rgb(123, 123, 123); font-weight: bold;">country</text></g></g></svg>